<svg version="1" xmlns="http://www.w3.org/2000/svg" width="826.667" height="826.667"
     viewBox="0 0 620.000000 620.000000">
  <path
    d="M303 5.1c-3.6 2.1-7.2 4.3-8 4.9-.8.5-4 2.4-7 4.2-3 1.7-15.6 9.2-27.9 16.5C247.8 38 237.4 44 236.9 44s-.9.4-.9 1c0 .5-.4 1-.8 1-.5 0-21.8 12.4-47.3 27.6-25.5 15.2-47.7 28.3-49.3 29.3-1.6.9-3.6 2-4.5 2.6-5.6 3.4-21.3 12.8-38.6 23-11 6.4-21.1 12.5-22.5 13.4-1.4.9-7.1 4.4-12.7 7.6l-10.3 6V310c0 146.1.1 154.6 1.8 155.6.9.6 3.7 2.2 6.2 3.6 5.4 3 19.2 11.2 24 14.3 5.1 3.3 156.7 93.3 162 96.3 2.5 1.3 5.2 3.1 6.1 3.8.8.8 1.8 1.4 2.1 1.4.2 0 11.5 6.6 24.9 14.6 13.4 8.1 26.3 15.7 28.6 17.1l4.3 2.4 3.7-2.1c4.2-2.2 5.8-3.2 12-7.3 2.3-1.5 4.4-2.7 4.8-2.7.3 0 2.4-1.2 4.8-2.7 2.3-1.5 5.1-3.1 6.2-3.7 1.9-1.1 55.1-32.8 78-46.5 6.1-3.6 11.8-7.1 12.8-7.6 6.3-3.6 52.7-31.2 54.7-32.6 1.4-.9 9.9-6.1 19-11.4 9.1-5.3 27.2-16.1 40.2-23.9l23.8-14.1v-309l-19.2-11.4c-10.6-6.3-22.4-13.3-26.3-15.6-3.8-2.3-21.6-12.9-39.5-23.5s-41.4-24.6-52.3-31.2c-10.9-6.5-20-11.8-20.3-11.8-.3 0-1.7-.9-3.2-1.9-2.8-2-74.2-44.6-85.2-50.8-1.9-1.1-5.8-3.4-8.6-5.1-2.8-1.8-5.3-3.2-5.5-3.1-.2 0-3.3 1.8-6.9 4z"/>
</svg>
